<?xml version="1.0" encoding="utf-8"?>
<!DOCTYPE svg>
<svg version="1.0" xmlns="http://www.w3.org/2000/svg" width="368px" height="252px" viewBox="0 0 368 252" preserveAspectRatio="xMidYMid meet">
 <g fill="#c5edd6">
  <path d="M0 126 l0 -126 184 0 184 0 0 126 0 126 -184 0 -184 0 0 -126z m328.35 70.65 c7.50 -2.65 9.65 -3.60 9.65 -4.25 0 -0.75 -1 -0.50 -7.05 1.60 -3.85 1.40 -7.80 2.50 -8.75 2.50 -1.55 0 -1.70 -0.15 -1.70 -1.50 0 -1.55 -0.30 -1.75 -1.70 -1.20 -0.60 0.25 -0.80 1.05 -0.80 3.25 0 1.60 0.15 2.95 0.35 2.95 0.25 0 4.75 -1.50 10 -3.35z m-82.45 -16.85 c0.75 -0.40 1.75 -1.15 2.20 -1.65 0.85 -0.95 0.70 -0.95 -6.75 -1.55 -4.15 -0.30 -8.65 -0.90 -10 -1.30 -2.10 -0.60 -2.55 -0.60 -3.85 0.05 -0.85 0.40 -1.50 0.90 -1.50 1.15 0 2.35 16.40 5.10 19.90 3.30z m28.45 -23.60 c4.50 -0.45 8.60 -1.95 17.85 -6.45 8.35 -4.05 12.10 -5.40 16.90 -6 1.90 -0.25 2.50 -0.60 3.35 -1.90 0.55 -0.85 0.95 -1.65 0.85 -1.70 -0.55 -0.55 -7.55 2.10 -15.30 5.80 -13.40 6.45 -15.75 7.05 -28.10 7.05 l-7.90 0 0 1.70 c0 1.70 0.10 1.75 2.15 1.95 2.15 0.20 5.30 0.05 10.20 -0.45z m71.95 -1.15 c1.65 -0.60 3.80 -1.75 4.75 -2.55 l1.70 -1.50 -2.25 0.80 c-2.90 1.05 -14.90 1.55 -17.85 0.75 -4.80 -1.30 -6.75 -4.35 -7.15 -11.05 l-0.30 -4.75 -1.10 2.25 c-1.40 2.90 -1.50 7.90 -0.15 10.75 1.20 2.55 3.80 5 6.30 6 2.95 1.10 12 0.70 16.05 -0.70z m-93.60 -1.80 c0.85 -1.80 0.85 -1.80 -0.65 -4.15 -0.80 -1.30 -2.65 -3.45 -4.05 -4.85 -1.65 -1.65 -2.50 -2.90 -2.50 -3.75 -0.05 -1.05 -0.25 -0.85 -1.30 1.20 l-1.30 2.45 3.25 3.30 c3.85 3.95 4.85 5.40 4.85 6.95 0 1.50 0.65 1.05 1.70 -1.15z m-60.65 -10.75 c3.65 -1.10 4.90 -1.70 4.35 -2.25 -0.25 -0.30 -8.90 3.05 -9.40 3.65 -0.15 0.15 0.10 0.15 0.55 -0.05 0.45 -0.15 2.50 -0.75 4.50 -1.35z m84.45 -5.95 c0 -1.35 -0.15 -1.50 -1.85 -1.65 -1.85 -0.15 -1.90 -0.20 -2.15 -2.40 l-0.25 -2.25 -1.10 2.25 c-0.65 1.25 -1.25 3 -1.45 3.90 l-0.30 1.60 3.55 0 3.55 0 0 -1.45z m75.35 -0.15 c1 -0.80 0.85 -1.15 -2.20 -4.40 -2.95 -3.25 -7.60 -6.80 -10.75 -8.30 -1.70 -0.80 -1.90 -1.10 -1.90 -2.75 0 -1.05 0.20 -2.40 0.45 -3.05 0.85 -2.35 1.15 -4.20 0.55 -3.60 -0.35 0.35 -3.45 10.40 -3.50 11.50 0 0.05 1.65 0.85 3.65 1.85 5 2.50 10.35 6.95 10.35 8.65 0 1.20 0.15 1.25 1.35 0.95 0.80 -0.20 1.70 -0.55 2 -0.85z m-61.40 -0.65 c2.25 -0.70 4.05 -1.45 4.05 -1.65 0 -0.25 -2.20 -1.15 -4.90 -2.10 -5.45 -1.85 -6.25 -1.80 -9.35 0.75 l-1.50 1.20 2.85 0.05 c3.60 0 4.40 0.35 4.40 1.80 0 0.65 0.10 1.20 0.20 1.20 0.15 0 2.05 -0.55 4.25 -1.25z m-234.85 -4.90 c-1.15 -1.20 -1.60 -5.35 -0.60 -5.35 0.30 0 0.50 -0.55 0.50 -1.25 0 -1.75 -0.65 -1.55 -3.25 0.90 -1.75 1.70 -2.25 2.55 -2.25 3.75 0 1.30 0.20 1.60 1.15 1.60 0.60 0.05 1.65 0.35 2.35 0.75 0.70 0.40 1.70 0.70 2.20 0.75 0.90 0 0.90 -0.05 -0.10 -1.15z m8.30 -13.65 c1.50 -0.40 1.40 -0.95 -0.25 -1.60 -2.80 -1.05 -13.15 -5.05 -21.90 -8.50 -4.95 -1.95 -10.25 -4 -11.80 -4.60 l-2.85 -1.05 0.05 -5.95 0 -6 1.85 0 c2.20 0 2.50 0.60 2.50 5.30 l0 3.10 2.65 1 c9.10 3.60 32.50 12.60 34.60 13.35 1.40 0.50 2.75 1.20 3.05 1.60 0.50 0.60 1.40 0.55 5.90 -0.45 2.90 -0.65 5.30 -1.25 5.25 -1.40 0 -0.25 -16.30 -12.30 -27.55 -20.40 -16.25 -11.70 -17.90 -13.05 -17.90 -14.75 0 -0.90 0.30 -2.05 0.70 -2.60 2.10 -3.05 1.70 -6.60 -1.20 -10.25 -2.35 -2.95 -2.10 -4.80 1.15 -9.20 1.45 -1.95 5.20 -7.05 8.35 -11.30 3.10 -4.25 6.55 -8.95 7.60 -10.35 1.70 -2.30 2.15 -2.65 3.65 -2.65 0.95 0 2.45 0.45 3.35 1 2.95 1.80 7 0.90 9.85 -2.20 0.90 -0.95 1.75 -1.30 3.05 -1.30 1.55 0 2.75 0.70 7.05 3.90 10.20 7.65 32.60 24.05 42.95 31.45 7.40 5.25 19.05 13.80 32.40 23.75 8.15 6.10 8.60 6.55 8.60 8.10 0 0.95 -0.35 2.50 -0.80 3.55 l-0.75 1.85 3.90 -0.35 c2.15 -0.20 4.80 -0.50 5.90 -0.70 l1.95 -0.30 -2.65 -1.90 -2.65 -1.90 0.25 -2.60 c0.15 -1.45 0.30 -3.05 0.40 -3.55 0.20 -1 -3.30 -2.55 -18.50 -8.25 -3.55 -1.35 -7.65 -4.10 -23.80 -16.05 -2.45 -1.85 -9.10 -6.70 -14.75 -10.80 -13.85 -10.15 -37.35 -27.30 -45.10 -33.05 -3.50 -2.55 -6.55 -4.65 -6.80 -4.65 -0.40 0 -3.30 3.80 -12.30 16.15 -3.90 5.30 -3.95 5.35 -6 5.35 -1.10 0 -3.55 -0.60 -5.45 -1.35 -2 -0.75 -3.55 -1.15 -3.80 -0.85 -0.20 0.25 -1.10 2.35 -2 4.70 -1.85 4.80 -3.90 10.05 -7.20 18.50 -12 30.60 -14.35 36.80 -14.15 37.25 0.10 0.25 1.20 0.90 2.35 1.35 1.20 0.45 6.35 2.45 11.45 4.40 5.10 1.95 12.05 4.65 15.50 6 8.25 3.20 20 7.75 21.15 8.15 0.45 0.20 0.85 0.55 0.85 0.85 0 0.55 0.30 0.60 1.90 0.20z m228.35 -5.70 c1.30 -1.35 1.35 -1.50 0.40 -1.50 -0.55 0 -2.25 -1.35 -4.05 -3.20 -1.70 -1.75 -3.10 -2.95 -3.10 -2.65 0 0.30 -0.40 0.95 -0.85 1.45 -0.80 0.90 -0.70 1.10 2.35 4.15 1.80 1.80 3.35 3.25 3.50 3.25 0.20 0 0.95 -0.65 1.75 -1.50z m-198.50 -1.45 c2.65 -0.55 3.85 -0.95 2.90 -1 -2.85 -0.10 -7.85 -2.45 -10.85 -5.10 -5.05 -4.55 -7.30 -9.95 -7.30 -17.60 0 -5.55 0.85 -9.40 2.75 -12.65 4.05 -6.90 11.30 -10.70 20.40 -10.70 6.95 0 12.55 2.25 16.80 6.75 4.65 4.90 6.25 9.75 5.95 17.70 -0.20 4.30 -0.50 5.90 -1.55 8.55 -1.60 3.80 -4.40 7.25 -7.70 9.50 -2.15 1.45 -2.25 1.55 -0.90 1.30 3.25 -0.65 24.05 -3.40 34.15 -4.50 5.85 -0.65 10.75 -1.30 10.80 -1.40 0.10 -0.05 0.30 -1.25 0.45 -2.65 l0.25 -2.50 -6.80 -4.85 c-8.95 -6.35 -25.90 -18.75 -30.35 -22.15 -3.40 -2.65 -18.20 -13.50 -24.70 -18.20 -1.75 -1.25 -6.45 -4.65 -10.35 -7.55 -3.95 -2.90 -8.55 -6.20 -10.20 -7.40 l-3.05 -2.15 -1.35 0.95 c-2.70 1.85 -4.40 2.20 -9.80 2.05 l-5.30 -0.20 -4.15 5.60 c-2.25 3.05 -6.20 8.40 -8.70 11.80 l-4.65 6.30 1.50 2.80 c1.35 2.55 1.50 3.30 1.45 7.20 0 2.35 -0.20 4.75 -0.40 5.30 -0.35 0.80 0.20 1.40 3.10 3.50 1.90 1.35 7 5.10 11.30 8.25 4.30 3.20 13.05 9.55 19.45 14.20 6.35 4.60 11.60 8.70 11.60 9.10 0 0.85 -0.30 0.85 5.25 -0.25z m14.90 -6.70 c3.65 -1.65 8.10 -6.10 10.05 -9.95 5.20 -10.50 -2.10 -23.30 -14.80 -25.90 -5.15 -1.05 -10.95 1.15 -15.85 6.05 -3.50 3.45 -5.20 7.25 -5.45 12 -0.20 3.35 -0.05 4.10 1.30 7.05 2.40 5.25 6.25 9 11.55 11.25 3.75 1.60 8.95 1.40 13.20 -0.50z"/>
 </g>
 <g fill="#00b34f">
  <path d="M58.85 119.70 c-0.20 -0.20 0.15 -0.65 0.75 -1 1.10 -0.60 1.10 -0.65 0.15 -1 -1.35 -0.50 -13.45 -5.15 -21.25 -8.20 -3.45 -1.35 -10.40 -4.05 -15.50 -6 -13.35 -5.15 -14.60 -5.70 -14.80 -6.25 -0.15 -0.30 2.90 -8.50 6.70 -18.25 3.85 -9.75 7.25 -18.60 7.65 -19.60 0.40 -1.20 0.95 -1.90 1.50 -1.90 0.50 0 1.05 -0.25 1.20 -0.50 0.15 -0.30 -0.05 -0.50 -0.50 -0.50 -1 0 -0.95 -0.20 2 -7.75 1.20 -3 2.95 -7.65 4 -10.25 1 -2.60 2 -4.95 2.25 -5.20 0.25 -0.25 2.45 0.35 5.10 1.40 2.60 1 4.95 1.80 5.25 1.80 0.30 0 3.20 -3.65 6.45 -8.10 7.85 -10.85 10.75 -14.60 11.25 -14.80 0.20 -0.10 3.70 2.30 7.80 5.30 9.05 6.65 32.30 23.65 46.15 33.80 5.65 4.10 12.30 8.95 14.75 10.80 17 12.60 20.10 14.65 24.45 16.30 2.45 0.90 5 2.20 5.75 2.85 1.80 1.65 11.10 8.35 11.60 8.35 0.25 0 0.30 0.65 0.15 1.45 -0.30 1.35 0 1.65 3.60 4.30 2.20 1.60 4.05 2.95 4.15 3.05 0.60 0.50 -0.85 0.75 -6.60 1.15 -3.45 0.25 -9.05 0.80 -12.45 1.25 -3.35 0.45 -9.05 1.10 -12.65 1.55 -11.25 1.25 -18.85 2.25 -23.50 3 -2.45 0.40 -5.40 0.80 -6.50 0.95 -1.10 0.10 -4.60 0.65 -7.75 1.20 -3.15 0.55 -8.35 1.50 -11.50 2.05 -3.15 0.55 -6.55 1.10 -7.50 1.30 -5.95 1 -18.75 3.95 -20.75 4.80 -5.35 2.10 -10.70 3.35 -11.40 2.65z m11.40 -4.60 c-0.30 -0.25 -1.60 -0.85 -3 -1.35 -3.30 -1.15 -31.20 -11.95 -34.75 -13.40 l-2.75 -1.15 0.15 -2.60 c0.20 -2.65 -0.25 -5.60 -0.80 -5.60 -0.20 0 -0.35 2.05 -0.35 4.50 l0 4.50 2.75 1.05 c1.50 0.55 6.80 2.60 11.75 4.55 4.95 1.95 11.60 4.55 14.75 5.75 3.15 1.25 6.75 2.65 8 3.20 2.30 0.95 5.10 1.30 4.25 0.55z m16.75 -3.80 c0 -0.10 -5.25 -4 -11.60 -8.60 -6.40 -4.65 -15.15 -11 -19.45 -14.20 -4.30 -3.15 -9.55 -7 -11.65 -8.50 -2.10 -1.50 -3.80 -2.95 -3.80 -3.30 0 -0.30 0.35 -1.45 0.80 -2.50 1.60 -3.85 0.65 -8.25 -2.90 -13.25 -0.45 -0.70 0 -1.55 2.50 -5 11.45 -15.70 13.80 -18.80 15.25 -20.60 l1.70 -2.05 1.75 0.85 c3.75 1.80 10.60 0.65 13.20 -2.20 0.45 -0.50 1.05 -0.95 1.30 -0.95 0.55 0 4.80 2.95 15.10 10.50 3.90 2.90 8.60 6.30 10.35 7.55 7.35 5.30 21.35 15.55 22.95 16.85 1.95 1.60 21.50 15.90 31 22.75 3.45 2.45 6.95 5 7.85 5.70 l1.60 1.20 -0.95 1.60 c-1 1.65 -1.30 3.35 -0.60 3.35 0.20 0 0.65 -0.95 1 -2.10 0.35 -1.20 0.75 -2.40 0.90 -2.75 0.15 -0.30 -3.50 -3.35 -8.40 -7 -13.55 -10.10 -25.05 -18.55 -32.40 -23.80 -3.70 -2.65 -8.65 -6.20 -11 -7.95 -11.15 -8.15 -21.95 -16.10 -28.75 -21.15 -4.10 -3.05 -7.80 -5.75 -8.15 -5.95 -0.45 -0.25 -1.25 0.10 -2.25 1.10 -2.50 2.35 -4.45 3.10 -7.95 3.10 -2.25 0 -3.60 -0.30 -4.80 -1 -0.90 -0.55 -1.70 -1 -1.85 -1 -0.10 0 -1.10 1.20 -2.15 2.65 -1.05 1.40 -4.50 6.10 -7.60 10.35 -3.15 4.25 -6.90 9.35 -8.35 11.30 -1.45 2 -2.65 3.75 -2.65 3.95 0 0.20 0.70 1.20 1.50 2.30 3.15 3.95 3.70 8.50 1.50 12.60 l-1 1.80 6.65 4.90 c3.60 2.70 8.85 6.55 11.60 8.50 2.75 2 10.30 7.55 16.75 12.35 10.30 7.65 13 9.45 13 8.60z m13 -4 c0 -0.45 -0.80 -0.75 -2.25 -0.95 -3.50 -0.35 -8.25 -2.95 -11.20 -6.10 -7.80 -8.25 -7.70 -20.60 0.25 -28.40 6.90 -6.80 16.05 -8.10 24.80 -3.50 3.20 1.70 5.80 4.15 7.95 7.65 3 4.80 3.30 13.50 0.70 18.80 -3 5.95 -9.25 10.75 -15.10 11.55 -1.75 0.25 -2.05 0.40 -1.40 0.75 2.20 1.25 9.25 -2 13.30 -6.10 8.20 -8.40 7.85 -22.30 -0.90 -30.55 -9.95 -9.40 -26.45 -7.05 -33.40 4.75 -3.75 6.40 -3.55 15.65 0.45 22.45 2.70 4.65 8.90 8.90 14.30 9.85 1.25 0.20 2.30 0.40 2.40 0.45 0.05 0 0.10 -0.25 0.10 -0.65z m3.50 -18.80 c0 -0.25 -0.35 -0.50 -0.75 -0.50 -0.40 0 -0.75 0.25 -0.75 0.50 0 0.30 0.35 0.50 0.75 0.50 0.40 0 0.75 -0.20 0.75 -0.50z"/>
  <path d="M134.70 66.20 c-3.25 -1.95 -4.80 -3.25 -6.30 -5.30 -1.35 -1.90 -0.85 -1.75 2.20 0.75 1.45 1.20 3.95 3 5.55 4 1.55 1 2.85 1.95 2.85 2.10 0 0.65 -1.55 0.10 -4.30 -1.55z"/>
 </g>
 <g fill="#000000">
  <path d="M69.75 242.80 c-3.55 -1.10 -5.95 -2.65 -8.40 -5.25 -2.65 -2.80 -4.05 -5.55 -4.85 -9.35 -0.30 -1.35 -2.30 -24.60 -4.50 -51.60 -4.40 -54.45 -4.35 -50.45 -0.90 -53.35 1.70 -1.45 7.65 -4.40 10.05 -5 0.80 -0.20 1.70 -0.80 2 -1.30 0.60 -1 1.85 -1.30 1.85 -0.45 0 0.30 0.40 0.30 1.10 0 0.65 -0.25 3.65 -1.05 6.65 -1.80 3.05 -0.75 5.75 -1.65 6.05 -2.05 0.35 -0.40 1.10 -0.55 2.05 -0.35 1 0.20 1.75 0.05 2.25 -0.50 0.55 -0.50 1.30 -0.65 2.50 -0.50 1.20 0.20 1.95 0.05 2.55 -0.50 0.55 -0.55 1.25 -0.70 2.05 -0.50 0.65 0.15 3.75 -0.20 6.90 -0.80 3.10 -0.60 8.25 -1.50 11.40 -2 3.15 -0.55 5.80 -1.20 5.90 -1.50 0.10 -0.30 0.85 -0.40 1.90 -0.20 1.10 0.20 1.70 0.10 1.70 -0.25 0 -0.30 0.35 -0.55 0.75 -0.55 0.40 0 0.75 0.20 0.75 0.45 0 0.45 5.10 -0.35 5.50 -0.85 0.15 -0.20 1.80 -0.35 3.65 -0.35 2.45 0 3.55 -0.25 3.85 -0.75 0.35 -0.55 0.70 -0.60 1.35 -0.20 1 0.55 2.65 0.35 2.65 -0.35 0 -0.25 0.35 -0.45 0.75 -0.45 0.40 0 0.75 0.25 0.75 0.50 0 0.70 0.80 0.60 1.65 -0.20 0.50 -0.50 1.35 -0.65 2.80 -0.45 1.35 0.20 2.05 0.10 2.05 -0.25 0 -0.40 0.75 -0.50 2.25 -0.25 1.55 0.20 2.25 0.10 2.25 -0.30 0 -0.40 0.55 -0.50 1.75 -0.25 2.10 0.35 11.75 -0.70 11.75 -1.35 0 -0.25 1 -0.30 2.25 -0.10 1.50 0.20 2.25 0.10 2.25 -0.25 0 -0.35 0.85 -0.45 2.50 -0.25 1.70 0.20 2.50 0.10 2.50 -0.30 0 -0.30 0.35 -0.55 0.75 -0.55 0.40 0 0.75 0.25 0.75 0.50 0 0.30 0.75 0.40 1.95 0.20 3.70 -0.60 7.50 1.50 9.10 5 0.70 1.55 0.95 3.25 0.95 6.90 l0 4.80 2.55 0 c3.05 0.05 5.95 1.75 7.25 4.15 0.50 1 1.20 5.20 1.90 10.90 l1.05 9.30 1.95 0.30 c2.65 0.45 5 3 6.15 6.80 0.70 2.30 0.90 4.55 0.85 11.15 0 7.40 -0.15 8.60 -1.25 11.75 -1.05 3.05 -1.55 3.75 -3.75 5.40 l-2.55 1.90 0.25 14.85 c0.30 19.40 0.60 18.80 -10.45 24.05 -21.25 10.15 -67.95 23.40 -92.85 26.30 -7.85 0.95 -24 0.95 -26.85 0.05z m28.45 -2.10 c24.15 -2.90 72.70 -16.95 92.05 -26.60 8.15 -4.05 7.85 -3.20 7.75 -21 0 -7.85 -0.15 -14.40 -0.25 -14.50 -0.50 -0.50 -4 1.35 -4.15 2.20 -0.30 1.55 -1.10 2.05 -1.80 1.10 -0.60 -0.80 -1 -0.75 -5.85 0.90 -7.40 2.50 -15.45 4.50 -23.80 5.95 -7.90 1.35 -10.20 1.50 -11.70 0.75 -2.10 -1.15 -2.35 -2.65 -2.75 -16.80 -0.45 -17.20 -1 -15.85 7.65 -18.75 6.30 -2.05 20.20 -7.50 33.80 -13.20 5.40 -2.30 6.85 -3.10 6.85 -3.85 0 -2.95 -1.65 -14.40 -2.25 -15.80 -0.55 -1.20 -1.45 -1.95 -3.05 -2.70 l-2.30 -1 -14.35 2.80 c-26.45 5.15 -48.10 8.75 -69.05 11.50 -26.10 3.45 -47.90 3.80 -53.35 0.90 -0.60 -0.35 -1.20 -0.60 -1.35 -0.60 -0.60 0 0.40 4.80 1.15 5.70 0.70 0.85 0.70 1 0.05 1.40 -0.70 0.45 -0.40 5.05 2.60 41.35 2.55 30.45 3.65 41.25 4.25 42.65 0.65 1.55 0.65 2 0.15 2.65 -0.50 0.60 -0.50 1.25 -0.05 3.10 1.65 6.60 7.25 11.55 14.25 12.70 3.45 0.55 18.05 0.05 25.50 -0.85z m61.95 -53.45 c16.75 -2.90 36.60 -9.40 41.65 -13.60 1.80 -1.50 2.30 -2.95 1.40 -3.70 -0.70 -0.60 -0.65 -0.75 0.50 -1.70 1.15 -0.95 1.40 -1.65 1.85 -5.65 0.60 -4.80 0.05 -12.20 -1.10 -15.50 -0.45 -1.30 -0.75 -1.55 -1.70 -1.30 -1.45 0.35 -2.10 -0.65 -0.95 -1.50 0.85 -0.65 0.80 -0.70 -0.20 -1.25 -0.55 -0.30 -1.55 -0.55 -2.15 -0.55 -2.35 0 -47.85 14.25 -49.15 15.40 -0.85 0.80 -0.90 1.65 -0.70 14.35 0.15 7.45 0.45 13.90 0.65 14.40 0.20 0.50 0.85 1.15 1.45 1.35 0.60 0.25 1.05 0.45 1.10 0.45 0 0.05 3.35 -0.50 7.35 -1.20z m-81.40 -54.75 c18 -1.30 47.25 -5.25 69 -9.25 3.60 -0.65 11.55 -2.10 17.75 -3.25 13.70 -2.50 13 -2.30 13 -3.80 0 -1.50 1.50 -1.65 1.85 -0.20 0.25 1.05 0.95 1.25 2.35 0.70 0.65 -0.25 0.80 -1.25 0.80 -5.65 0 -6.10 -0.75 -7.95 -3.75 -9.40 -1.70 -0.80 -2.45 -0.80 -17.40 0.80 -49.55 5.15 -92.70 12.85 -100.60 17.90 -3.45 2.20 -5.90 4.90 -4.15 4.50 0.30 -0.05 0.65 0.25 0.75 0.70 0.15 0.55 -0.25 0.95 -1.05 1.15 -0.75 0.20 -1.30 0.60 -1.30 0.95 0 1.55 4.45 4.35 6.90 4.35 0.80 0 2.75 -0.45 4.40 -1 17.85 -6.15 59.45 -14.20 90.70 -17.50 11.60 -1.20 13.50 -1.25 13.50 -0.30 0 0.85 -0.65 0.95 -12.25 2.10 -14.45 1.40 -44.30 6 -58.25 8.95 -8.75 1.85 -27.20 6.55 -30.50 7.70 l-2.75 1 2 0 c1.10 0.05 5.15 -0.20 9 -0.45z"/>
  <path d="M76.60 234.95 c-1.70 -0.65 -0.85 -1.45 1.55 -1.45 2.35 0 3.65 0.60 3.15 1.45 -0.45 0.65 -3.10 0.65 -4.70 0z"/>
  <path d="M84 234.80 c0 -1.30 3.20 -1.75 5.05 -0.75 1.60 0.80 0.60 1.45 -2.35 1.45 -1.95 0 -2.70 -0.20 -2.70 -0.70z"/>
  <path d="M92.50 234.30 c0 -0.45 0.90 -0.80 2.50 -1 2.90 -0.40 3.85 -0.05 2.95 1 -0.80 0.95 -5.45 0.95 -5.45 0z"/>
  <path d="M69.75 233.80 c-2.10 -0.60 -3.15 -2.35 -1.40 -2.25 1.65 0.05 4.40 1.30 4.40 1.95 0 0.95 -0.70 1 -3 0.30z"/>
  <path d="M101.15 233.65 c-0.40 -1 0.05 -1.25 2.85 -1.55 2.05 -0.20 2.50 -0.10 2.50 0.60 0 0.40 -0.50 0.90 -1.10 1 -3.20 0.65 -4 0.65 -4.25 -0.05z"/>
  <path d="M109.25 232 c-0.15 -0.30 0.30 -0.75 1 -1 2 -0.75 4.35 -0.85 4.60 -0.15 0.45 1.25 -4.90 2.30 -5.60 1.15z"/>
  <path d="M61.70 229.80 c-1.65 -1.45 -1.80 -1.75 -1.10 -2.05 1 -0.40 4.40 2 4.40 3.05 0 1.15 -1.25 0.80 -3.30 -1z"/>
  <path d="M117.50 230.35 c0 -1.05 0.30 -1.20 3.15 -1.60 1.95 -0.30 2.35 -0.25 2.35 0.40 0 0.85 -0.60 1.10 -3.60 1.65 -1.55 0.25 -1.90 0.15 -1.90 -0.45z"/>
  <path d="M125.85 228.70 c-0.75 -0.75 -0.25 -1.20 2.25 -1.95 3.15 -0.90 2.90 -0.95 2.90 0.20 0 0.55 -0.40 1.10 -0.85 1.25 -2.20 0.60 -4 0.80 -4.30 0.50z"/>
  <path d="M134.30 226.65 c-0.75 -0.75 -0.15 -1.55 1.65 -2.05 2.55 -0.80 3.55 -0.75 3.55 0.15 0 0.40 -0.05 0.75 -0.10 0.75 -0.10 0 -1.20 0.35 -2.50 0.70 -1.25 0.40 -2.45 0.60 -2.60 0.45z"/>
  <path d="M142.20 223.95 c-0.40 -0.70 0.15 -1.20 2.25 -1.90 2.25 -0.75 3.05 -0.70 3.05 0.15 0 0.40 -1.05 1.05 -2.35 1.50 -2.75 0.95 -2.50 0.95 -2.95 0.25z"/>
  <path d="M150.35 221.70 c-0.20 -0.20 -0.35 -0.55 -0.35 -0.80 0 -0.55 3.15 -1.90 4.50 -1.90 1.60 0 1.15 1.40 -0.60 1.90 -0.90 0.30 -2 0.65 -2.45 0.80 -0.40 0.20 -0.90 0.15 -1.10 0z"/>
  <path d="M158 218.35 c0 -0.65 3.70 -2.35 5.10 -2.35 1 0 0.25 1.60 -0.95 2.05 -2.70 1 -4.15 1.15 -4.15 0.30z"/>
  <path d="M166.35 216.15 c-0.75 -0.70 -0.25 -1.20 1.95 -2.15 2.20 -0.95 3.20 -0.95 3.20 0 0 0.90 -4.55 2.80 -5.15 2.15z"/>
  <path d="M174 212.60 c0 -0.55 0.75 -1.15 2.35 -1.70 2.30 -0.85 3.15 -0.80 3.15 0.15 0 0.45 -4.10 2.45 -5.05 2.45 -0.25 0 -0.45 -0.40 -0.45 -0.90z"/>
  <path d="M181.85 210.15 c-0.20 -0.15 -0.35 -0.50 -0.35 -0.75 0 -0.60 4.50 -2.45 5.05 -2.10 1.05 0.65 0.30 1.65 -1.90 2.40 -2.70 0.95 -2.40 0.90 -2.80 0.45z"/>
  <path d="M189.50 206.55 c0 -0.85 2.55 -4.30 3.15 -4.30 0.80 0 0.50 1.75 -0.60 3.25 -0.95 1.30 -2.55 1.95 -2.55 1.05z"/>
  <path d="M191.70 198.85 c-0.55 -1.45 0 -5.10 0.80 -5.10 0.95 0 1.10 5.30 0.15 5.60 -0.35 0.15 -0.80 -0.10 -0.95 -0.50z"/>
  <path d="M191.70 190.35 c-0.55 -1.45 0 -5.10 0.80 -5.10 0.95 0 1.10 5.30 0.15 5.60 -0.35 0.15 -0.80 -0.10 -0.95 -0.50z"/>
  <path d="M62.75 141.50 c-0.20 -0.35 -0.15 -0.80 0.15 -1.10 0.65 -0.65 5.10 0.10 5.25 0.85 0.15 0.70 -5 0.95 -5.40 0.25z"/>
  <path d="M71 141.25 c0 -0.65 0.50 -0.75 2.75 -0.65 1.50 0.10 2.75 0.40 2.75 0.65 0 0.30 -1.25 0.55 -2.75 0.65 -2.25 0.10 -2.75 0 -2.75 -0.65z"/>
  <path d="M79.75 141.50 c-0.60 -1 0.35 -1.50 2.80 -1.50 3 0 3.45 1.20 0.60 1.70 -2.60 0.40 -3.05 0.40 -3.40 -0.20z"/>
  <path d="M56.25 141.05 c-0.90 -0.20 -1.55 -0.70 -1.65 -1.25 -0.20 -0.80 0 -0.90 1.75 -0.60 3.05 0.55 3.65 0.80 3.65 1.60 0 0.75 -1.15 0.80 -3.75 0.25z"/>
  <path d="M88 140.30 c0 -0.45 0.85 -0.80 2.55 -1.05 2.75 -0.40 3.25 -0.20 2.80 1 -0.45 1.05 -5.35 1.10 -5.35 0.05z"/>
  <path d="M96.30 140.10 c-0.50 -0.80 0.55 -1.45 2.80 -1.75 2.30 -0.30 3.55 0.25 2.60 1.15 -0.65 0.55 -5.10 1.05 -5.40 0.60z"/>
  <path d="M104.70 138.95 c-0.50 -0.85 0.25 -1.35 2.60 -1.70 2.40 -0.35 3.75 0.20 2.60 1.10 -0.90 0.70 -4.85 1.15 -5.20 0.60z"/>
  <path d="M113 137.30 c0 -0.90 1.10 -1.30 3.55 -1.30 2.20 0 2.75 1.15 0.85 1.70 -2.10 0.55 -4.40 0.35 -4.40 -0.40z"/>
  <path d="M189.85 137.65 c-0.20 -0.15 -0.35 -1.55 -0.35 -3 0 -3.30 1 -3.40 1.65 -0.20 0.55 2.80 -0.10 4.40 -1.30 3.20z"/>
  <path d="M121.30 136.25 c-0.35 -0.95 0.25 -1.20 3.15 -1.35 2.20 -0.15 3.45 0.80 1.70 1.25 -2.95 0.80 -4.55 0.85 -4.85 0.10z"/>
  <path d="M129.50 134.85 c0 -1 0.25 -1.15 3.15 -1.55 1.90 -0.30 2.35 -0.20 2.35 0.40 0 1 -0.50 1.25 -3.20 1.60 -1.90 0.30 -2.30 0.20 -2.30 -0.45z"/>
  <path d="M137.80 133.60 c-0.45 -0.75 0.70 -1.45 3 -1.85 2.10 -0.30 3.35 0.35 2.40 1.25 -0.70 0.65 -5.05 1.15 -5.40 0.60z"/>
  <path d="M146 131.85 c0 -0.85 0.60 -1.10 3.65 -1.65 1.50 -0.25 1.85 -0.15 1.85 0.45 0 1.05 -0.30 1.20 -3.10 1.60 -2 0.30 -2.40 0.25 -2.40 -0.40z"/>
  <path d="M154.50 130.05 c0 -0.70 0.50 -1 1.90 -1.25 2.80 -0.45 3.60 -0.35 3.60 0.40 0 0.45 -0.95 0.90 -2.50 1.25 -3.20 0.70 -3 0.70 -3 -0.40z"/>
  <path d="M162.65 128.85 c-0.35 -0.60 1.20 -1.85 2.30 -1.85 0.45 0 1.30 -0.15 1.95 -0.30 0.85 -0.25 1.10 -0.10 1.10 0.70 0 0.75 -0.50 1.05 -2.50 1.45 -1.70 0.35 -2.65 0.35 -2.85 0z"/>
  <path d="M188.70 128.25 c-0.15 -0.65 -0.60 -1.45 -1 -1.80 -0.90 -0.75 -0.90 -1.95 0 -1.95 1.05 0 2.80 2.40 2.80 3.80 0 1.60 -1.40 1.55 -1.80 -0.05z"/>
  <path d="M170.80 127.05 c-0.50 -0.75 0.95 -1.50 3.15 -1.65 2.85 -0.20 3.30 0.85 0.70 1.55 -2.35 0.65 -3.50 0.70 -3.85 0.10z"/>
  <path d="M179.35 125.70 c-0.85 -0.85 -0.15 -1.55 2 -2.05 2.55 -0.60 3.15 -0.50 3.15 0.55 0 0.40 -0.80 0.85 -1.80 1 -0.95 0.20 -2.05 0.45 -2.40 0.60 -0.35 0.10 -0.75 0.05 -0.95 -0.10z"/>
  <path d="M154.05 185.20 c-0.60 -0.45 -0.95 -1 -0.70 -1.20 0.65 -0.65 5.65 0.05 5.65 0.75 0 1.40 -3.15 1.65 -4.95 0.45z"/>
  <path d="M161.75 184.45 c-0.55 -0.85 0.30 -1.35 3.15 -1.75 2.15 -0.25 2.60 -0.20 2.60 0.45 0 0.80 -0.55 1.05 -3.60 1.55 -1.10 0.20 -1.95 0.10 -2.15 -0.25z"/>
  <path d="M170.50 182.25 c0 -0.70 2.80 -1.75 4.65 -1.75 1.60 0 0.90 1.45 -1 1.95 -2.60 0.75 -3.65 0.70 -3.65 -0.20z"/>
  <path d="M152.35 180.65 c-0.20 -0.15 -0.35 -1.50 -0.35 -3 0 -2 0.20 -2.65 0.75 -2.65 0.60 0 0.75 0.65 0.75 3 0 2.75 -0.30 3.50 -1.15 2.65z"/>
  <path d="M179 180.10 c0 -0.90 2.65 -2.10 4.70 -2.10 1.70 0 0.70 1.45 -1.55 2.20 -2.95 1 -3.15 1 -3.15 -0.10z"/>
  <path d="M160.50 179.60 c-1.15 -0.55 -2.15 -1.65 -2.90 -3.10 -2.75 -5.35 0.50 -13.30 6.65 -16.05 2.55 -1.20 4.45 -1.15 7.15 0.05 1.65 0.75 2.35 1.45 3.10 3.10 4.05 8.90 -5.80 20.15 -14 16z m7.50 -2.05 c2.30 -1.20 4.90 -4.90 5.40 -7.60 0.55 -3.10 -0.05 -5.45 -1.85 -7.05 -4.70 -4.20 -13 1.70 -13.05 9.25 0 4.20 1.80 6.30 5.50 6.35 1.25 0 3.05 -0.40 4 -0.95z"/>
  <path d="M163.35 174.70 c-0.20 -0.20 0.15 -1.25 0.80 -2.35 l1.10 -2 -1.10 -0.70 c-0.65 -0.45 -1.15 -1.10 -1.15 -1.45 0 -0.85 1.60 -0.90 2.40 -0.10 0.65 0.65 1.90 -0.15 2.35 -1.60 0.15 -0.50 0.65 -1.05 1.05 -1.20 1.25 -0.50 1.35 1.05 0.20 2.75 l-1.15 1.55 1.45 1.15 c1.15 0.90 1.30 1.30 0.85 1.80 -0.45 0.45 -0.90 0.40 -1.90 -0.25 -0.75 -0.50 -1.40 -0.80 -1.45 -0.70 -0.05 0.10 -0.65 0.90 -1.25 1.80 -1.10 1.60 -1.60 1.90 -2.20 1.30z"/>
  <path d="M187 177.30 c0 -0.70 3.35 -2.30 4.75 -2.30 1.40 0 0.75 1.30 -1 2.15 -2.15 1.05 -3.75 1.10 -3.75 0.15z"/>
  <path d="M195.30 174.05 c-0.35 -0.50 0.35 -1.10 2.55 -2.25 2 -1 2.65 -1 2.65 -0.05 0 0.40 -0.90 1.20 -2 1.75 -2.15 1.10 -2.80 1.20 -3.20 0.55z"/>
  <path d="M152.10 169.25 c0.10 -1.50 0.40 -2.75 0.65 -2.75 0.30 0 0.55 1.25 0.65 2.75 0.10 2.25 0 2.75 -0.65 2.75 -0.65 0 -0.75 -0.50 -0.65 -2.75z"/>
  <path d="M152.35 162.90 c-0.35 -1.10 0.75 -2.95 2.20 -3.70 1.75 -0.85 1.95 -0.85 1.95 0 0 0.60 -3.15 4.30 -3.65 4.30 -0.15 0 -0.35 -0.30 -0.50 -0.60z"/>
  <path d="M159.50 158.10 c0 -0.95 2.40 -2.10 4.40 -2.10 1.80 0 1.25 1 -1.20 2 -2.80 1.25 -3.20 1.25 -3.20 0.10z"/>
  <path d="M167.50 155.30 c0 -0.80 4.70 -2.55 5.45 -2.05 0.95 0.55 0 1.60 -1.90 2.20 -2.55 0.75 -3.55 0.70 -3.55 -0.15z"/>
  <path d="M176 152.80 c0 -0.85 1.55 -1.65 4.15 -2.15 1.05 -0.20 1.35 -0.10 1.35 0.55 0 0.85 -1.55 1.65 -4.10 2.15 -1.10 0.20 -1.40 0.10 -1.40 -0.55z"/>
  <path d="M184.50 150.30 c0 -0.85 1.55 -1.65 4.15 -2.15 1.05 -0.20 1.35 -0.10 1.35 0.55 0 0.85 -1.55 1.65 -4.10 2.15 -1.10 0.20 -1.40 0.10 -1.40 -0.55z"/>
  <path d="M192.85 148.20 c-0.70 -0.75 -0.30 -1.15 2.15 -1.95 2.40 -0.80 3.50 -0.70 3.50 0.30 0 0.85 -5 2.30 -5.65 1.65z"/>
  <path d="M61.30 125.05 c-0.15 -0.25 0 -0.65 0.35 -0.95 0.80 -0.65 4.20 -1.55 4.55 -1.20 0.80 0.75 0.10 1.55 -1.90 2.05 -2.70 0.65 -2.65 0.65 -3 0.10z"/>
  <path d="M69.50 122.80 c0 -1 0.35 -1.15 3.15 -1.55 1.90 -0.30 2.35 -0.20 2.35 0.40 0 0.45 -0.85 0.95 -2.20 1.30 -2.90 0.70 -3.30 0.70 -3.30 -0.15z"/>
  <path d="M77.50 120.85 c0 -0.50 0.70 -1 1.90 -1.30 2.55 -0.75 3.60 -0.70 3.60 0.15 0 1 -0.50 1.25 -3.20 1.60 -1.90 0.30 -2.30 0.20 -2.30 -0.45z"/>
  <path d="M85.75 119.50 c-0.55 -0.90 0.20 -1.45 2.55 -1.80 2.50 -0.35 4 0.35 2.40 1.20 -1.55 0.80 -4.60 1.20 -4.95 0.60z"/>
  <path d="M94 117.35 c0 -0.95 4.40 -2.15 5.15 -1.40 0.85 0.85 -0.30 1.65 -2.85 1.90 -1.85 0.25 -2.30 0.15 -2.30 -0.50z"/>
  <path d="M102 115.80 c0 -0.45 0.95 -0.90 2.50 -1.25 3.20 -0.70 3 -0.70 3 0.40 0 0.70 -0.50 1 -1.85 1.25 -2.85 0.45 -3.65 0.35 -3.65 -0.40z"/>
  <path d="M110.25 114.55 c-0.40 -0.70 1.20 -1.45 3.50 -1.65 2.30 -0.20 2.95 0.85 1 1.60 -1.65 0.65 -4.10 0.65 -4.50 0.05z"/>
  <path d="M118.50 112.80 c0 -0.80 1.50 -1.30 3.90 -1.30 1.70 0 2.25 1.15 0.80 1.70 -1.55 0.60 -4.70 0.35 -4.70 -0.40z"/>
  <path d="M126.85 111.80 c-0.40 -0.95 -0.10 -1.15 2.70 -1.55 1.60 -0.25 2.45 -0.15 2.70 0.25 0.55 0.85 -0.25 1.35 -2.80 1.70 -1.85 0.25 -2.40 0.20 -2.60 -0.40z"/>
  <path d="M178.30 112.15 c-0.15 -0.20 -0.30 -0.70 -0.30 -1.15 0 -0.50 -0.35 -1.15 -0.75 -1.50 -0.90 -0.75 -1 -2.50 -0.10 -2.50 1.55 0.05 3.50 4.65 2.20 5.15 -0.40 0.15 -0.90 0.15 -1.05 0z"/>
  <path d="M135.15 110.85 c-0.50 -0.80 0.70 -1.45 3.10 -1.75 2.10 -0.20 2.35 -0.15 2.15 0.70 -0.10 0.75 -0.75 1 -2.55 1.25 -1.35 0.15 -2.55 0.05 -2.70 -0.20z"/>
  <path d="M143.50 109.30 c0 -0.80 1.50 -1.30 3.90 -1.30 1.70 0 2.25 1.15 0.80 1.70 -1.55 0.60 -4.70 0.35 -4.70 -0.40z"/>
  <path d="M151.85 108.90 c-1.05 -0.65 0.30 -1.40 2.90 -1.50 1.95 -0.10 2.50 0 2.50 0.60 0 0.85 -4.30 1.60 -5.40 0.90z"/>
  <path d="M160.10 107.65 c0.20 -1.20 5.40 -1.65 5.40 -0.50 0 0.95 -1.10 1.35 -3.60 1.35 -1.60 0 -1.95 -0.15 -1.80 -0.85z"/>
  <path d="M168.85 107.65 c-0.20 -0.15 -0.35 -0.60 -0.35 -1 0 -0.45 0.80 -0.65 2.75 -0.65 2 0 2.75 0.20 2.75 0.70 0 0.40 -0.35 0.85 -0.80 1 -1.05 0.40 -3.95 0.40 -4.35 -0.05z"/>
  <path d="M316.50 197.55 l0 -4.95 1.45 -0.50 c1.15 -0.40 1.50 -0.85 1.65 -2.10 l0.15 -1.60 10.25 -3.65 c5.65 -2 10.75 -3.75 11.40 -3.95 1.10 -0.35 1.10 -0.35 1.10 4.70 l0 5.05 -1.50 0.50 c-1.25 0.45 -1.50 0.80 -1.50 2.15 l0 1.55 -11.10 3.90 c-6.15 2.10 -11.30 3.85 -11.50 3.85 -0.25 0 -0.40 -2.25 -0.40 -4.95z m15.15 -5.80 l8.35 -2.90 0 -2.45 c0 -1.80 -0.20 -2.45 -0.60 -2.25 -0.35 0.10 -4.40 1.55 -9 3.15 l-8.40 2.95 0 2.45 c0 1.70 0.20 2.35 0.65 2.20 0.30 -0.15 4.35 -1.55 9 -3.15z"/>
  <path d="M235 181.45 c-4.70 -0.60 -9.30 -1.90 -10.25 -2.95 -1.20 -1.30 -0.80 -3.60 0.75 -4.35 0.75 -0.35 1.35 -1.20 1.50 -2 0.15 -0.80 0.75 -1.60 1.50 -1.95 0.70 -0.35 3.40 -1.65 6 -2.90 5.30 -2.55 13.25 -8.05 14.40 -9.95 1.20 -1.95 0.35 -3.60 -4.20 -8.35 l-4.25 -4.40 3 -6 c1.65 -3.30 3.45 -6.30 3.95 -6.70 0.55 -0.35 1.35 -1.40 1.80 -2.30 1.60 -3.10 4 -3.10 6.10 0 3.10 4.45 7.60 7.40 11.30 7.40 1.10 0 1.30 -0.30 1.60 -1.90 0.35 -2.50 2.25 -6 5.55 -10.35 5.10 -6.80 8.95 -9.15 13.80 -8.60 1.40 0.20 5.65 1.60 9.40 3.15 11.15 4.55 15.95 6.20 20 6.75 5.05 0.65 5.30 0.75 6 2.25 0.70 1.55 0.60 1.70 -3.80 7.85 -6.75 9.50 -6.10 8.80 -8.60 9.10 -4.75 0.60 -8.55 1.95 -16.85 6 -4.75 2.30 -10.10 4.65 -11.95 5.20 -3.55 1.10 -13.15 2.20 -17.05 1.95 l-2.30 -0.15 -0.70 2.65 c-0.40 1.45 -1.25 3.85 -1.95 5.30 -2.30 4.85 -9.40 13.55 -12.35 15.10 -1.50 0.75 -6.95 0.85 -12.40 0.15z m17.25 -9.10 c4.90 -4.95 8.20 -13 8.25 -19.80 0 -1.85 0.10 -2.10 0.90 -1.75 0.45 0.20 3.75 0.45 7.30 0.60 10.90 0.35 15.70 -0.85 28.05 -7.05 8.30 -4.15 9.90 -4.75 14.50 -5.55 l3.50 -0.60 2.95 -4.35 c1.65 -2.40 2.90 -4.45 2.75 -4.60 -0.15 -0.10 -2.05 -0.50 -4.20 -0.80 -4.15 -0.55 -8.75 -2.10 -19.70 -6.65 -8.05 -3.30 -10.25 -3.75 -13.25 -2.60 -2.65 1 -6.20 4.70 -8 8.20 -2.15 4.30 -1.40 7.40 1.35 5.40 6.40 -4.70 7.60 -4.80 16.60 -1.50 3.45 1.25 6.25 2.45 6.25 2.65 0 0.40 -4.65 2.40 -8.35 3.55 -4.55 1.40 -10 2 -18.35 2 -10.55 0.05 -11.90 -0.40 -16.90 -5.55 -2.10 -2.15 -3.90 -3.95 -4 -3.95 -0.10 0 -1.30 2.25 -2.65 5 l-2.45 5 2.80 2.90 c5.35 5.50 6.35 8.15 4.55 12 -2 4.15 -11.60 11.55 -20.45 15.65 l-4.45 2.10 2.95 0.95 c2.80 0.85 9.30 1.70 14.55 1.85 2.40 0.05 2.55 -0.05 5.50 -3.10z m30.40 -35.70 c1.30 -0.20 1.70 -0.45 1.25 -0.70 -1.05 -0.70 -4.05 -0.50 -5.10 0.30 -0.95 0.70 -0.90 0.75 0.50 0.75 0.80 0 2.30 -0.15 3.35 -0.35z"/>
  <path d="M332.25 158 c-7.40 -1.10 -10.90 -5.40 -10.90 -13.50 0 -4.75 0.75 -7.10 3.15 -9.80 0.80 -0.95 1.50 -1.90 1.50 -2.15 0 -0.25 0.60 -1 1.30 -1.75 2.60 -2.55 6.45 -1.30 7 2.25 0.20 1.10 0.75 2.55 1.30 3.20 0.90 1.20 1.25 1.25 6.20 1.25 3.05 0 5.20 -0.20 5.20 -0.50 0 -1 -6.90 -6.15 -10.60 -7.90 -2.15 -1 -3.90 -2.05 -3.90 -2.35 0 -0.25 0.80 -3.40 1.75 -7 1.35 -5.10 2 -6.75 3 -7.60 0.70 -0.65 1.55 -1.80 1.85 -2.65 1.10 -3.20 3.80 -2.55 9.95 2.40 9.10 7.35 13.90 16.15 13.30 24.55 -0.35 5.05 -1.30 7.40 -4.70 12 -3.35 4.45 -4.65 5.65 -7.40 7 -4.25 2.15 -12.85 3.35 -18 2.55z m16.85 -7.75 c4.15 -1.35 7.35 -3.95 9.15 -7.50 1.35 -2.65 1.50 -3.40 1.50 -7.45 -0.05 -6.95 -2.25 -11.60 -8.50 -17.95 -3.65 -3.75 -9 -7.75 -9.55 -7.20 -0.65 0.60 -3.25 11.10 -2.85 11.20 4.40 1.50 14.75 10.60 15.40 13.55 0.75 3.50 -2.70 4.85 -12.60 4.85 -6.25 0 -6.65 -0.05 -7.85 -1.20 -0.80 -0.75 -1.40 -2 -1.55 -3.30 -0.45 -2.85 -0.90 -3.45 -2.40 -3.05 -1.75 0.40 -2.85 3.45 -2.85 7.95 0.05 5.60 2.05 9.05 6.35 10.65 2.65 1 11.95 0.65 15.75 -0.55z"/>
  <path d="M285.50 111.25 l-4.70 -4.75 1.60 -1.65 c0.90 -0.90 1.60 -1.85 1.60 -2.15 0 -0.25 2.20 -2.65 4.90 -5.35 l4.85 -4.85 4.65 4.65 c2.50 2.55 4.60 4.85 4.60 5.15 0 0.30 -0.65 1.15 -1.50 1.95 -0.80 0.80 -1.50 1.70 -1.50 2 0 0.50 -9 9.75 -9.50 9.75 -0.15 0 -2.40 -2.15 -5 -4.75z m11.10 -5.60 c1.60 -1.60 2.90 -3.10 2.90 -3.40 0 -0.30 -1.30 -1.80 -2.90 -3.40 l-2.90 -2.85 -3.20 3.25 -3.20 3.25 2.95 3 c1.65 1.65 3.10 3 3.20 3 0.15 0 1.55 -1.30 3.15 -2.85z"/>
  <path d="M171.65 78.30 c-5.45 -1.75 -11.50 -7.45 -13.45 -12.70 -0.05 -0.05 -1.60 0.60 -3.50 1.50 -2.80 1.30 -4.20 1.65 -7.70 1.80 -9.65 0.45 -16.95 -3.80 -21.15 -12.35 -1.55 -3.15 -1.60 -3.50 -1.60 -9.30 0 -5.75 0.05 -6.15 1.60 -9.40 2.05 -4.30 5.80 -8.05 10.40 -10.30 3 -1.50 4.05 -1.75 8.25 -1.95 4 -0.15 5.25 -0.05 7.75 0.85 1.65 0.60 3.35 1.20 3.75 1.35 0.65 0.20 0.75 -0.10 0.60 -1.65 -0.75 -7.95 4.65 -16.75 12.65 -20.70 3.35 -1.65 3.70 -1.70 9.25 -1.70 5.45 0 5.90 0.10 9.05 1.60 6.90 3.40 11.35 9.35 12.50 16.80 0.95 6 -1.10 13 -5 17.50 l-1.50 1.65 1.80 2.25 c8.90 11.10 5.40 26.90 -7.40 33.50 -2.95 1.55 -3.60 1.65 -8.70 1.80 -3.65 0.10 -6.20 -0.10 -7.60 -0.55z m10.95 -0.85 c4.45 -0.95 7.60 -2.75 10.80 -6.20 5.10 -5.45 6.80 -12.55 4.70 -19.60 -1 -3.20 -4.60 -9.15 -5.55 -9.15 -0.25 0 -1.70 0.75 -3.20 1.70 -5.85 3.50 -13.55 3.70 -20.95 0.55 -0.80 -0.30 -0.90 0 -0.90 2.65 0 5.40 -2.55 11.55 -6.20 15.05 -1 0.95 -1.80 2.05 -1.80 2.40 0 2.10 4.95 8.10 8.40 10.25 2.25 1.40 7.25 2.80 9.95 2.85 1.15 0.05 3.30 -0.20 4.75 -0.50z m-33.50 -10 c1.45 -0.30 3.95 -1.15 5.55 -1.85 2.95 -1.25 2.95 -1.25 2.60 -3.05 -0.40 -2.25 -0.55 -2.35 -1.60 -1.50 -0.85 0.65 -0.85 0.65 0 -0.35 0.45 -0.55 0.85 -1.80 0.85 -2.80 0 -4.90 2.45 -11.55 5.40 -14.85 l1.55 -1.70 -1.70 -2.10 c-1.50 -1.80 -3.45 -5.50 -4.45 -8.40 -0.40 -1.20 -5 -3.25 -8.75 -3.90 -11.30 -2 -22.50 6.95 -23.40 18.60 -0.75 10.20 5.50 18.95 15.35 21.55 3.90 1 5.15 1.05 8.60 0.35z m15.30 -11.95 c0.95 -2.10 1.30 -3.80 1.45 -7.25 0.30 -6.90 -0.90 -7.50 -4.35 -2.20 -2.25 3.45 -3.50 7.10 -3.50 10.10 0 1.80 0.10 1.90 0.90 1.30 0.75 -0.60 0.70 -0.55 -0.05 0.40 -0.75 0.85 -0.90 1.50 -0.60 3.20 l0.35 2.15 2.30 -2.45 c1.25 -1.40 2.80 -3.75 3.50 -5.25z m19.80 -10.55 c2.50 -0.70 5.40 -2.15 6.20 -3.10 0.50 -0.60 0.35 -0.90 -0.70 -1.55 -0.70 -0.50 -1.60 -0.75 -2 -0.60 -0.35 0.15 -0.65 0 -0.55 -0.30 0.05 -0.30 -1.15 -1 -2.65 -1.50 -4.20 -1.50 -10.20 -1.10 -14.65 0.95 -1.85 0.90 -3.35 1.70 -3.35 1.85 0 1.75 3 3.55 7.70 4.55 3.25 0.70 6.65 0.60 10 -0.30z m-20.85 -8.10 c-0.70 -1.15 -2 -2.75 -2.85 -3.60 l-1.60 -1.50 0.80 1.95 c1 2.40 4.40 6.70 4.70 5.85 0.10 -0.30 -0.35 -1.50 -1.05 -2.70z m30.95 1.55 c0.75 -0.90 2.05 -3.10 2.90 -4.90 1.40 -2.95 1.55 -3.70 1.55 -8.25 0 -4.60 -0.15 -5.30 -1.60 -8.35 -4.05 -8.55 -13 -13.50 -21.70 -11.95 -10.30 1.80 -17.45 10.15 -17.45 20.40 l0 3.15 3.05 3.35 c1.65 1.80 3.45 4.20 4 5.25 0.85 1.70 1.95 2.55 1.95 1.50 0 -0.80 8 -3.10 10.85 -3.10 1.60 0 2.15 -0.20 2.15 -0.75 0 -0.40 0.35 -0.75 0.75 -0.75 0.40 0 0.75 -0.20 0.75 -0.50 0 -0.25 0.80 -0.50 1.75 -0.50 1.20 0 1.75 0.25 1.75 0.75 0 0.40 -0.70 0.85 -1.75 1.05 -2.05 0.35 -2.35 1.20 -0.45 1.20 1.45 0 5.85 1.75 7.70 3.05 1.75 1.25 2.20 1.20 3.80 -0.65z"/>
 </g>
 <g fill="#221e1f">
  <path d="M191.70 196 c0.05 -1.65 0.25 -2.25 0.80 -2.25 0.55 0 0.75 0.65 0.80 2.50 l0.05 2.50 -0.20 -2.35 c-0.25 -3 -1.05 -3.15 -1.30 -0.25 l-0.20 2.10 0.05 -2.25z"/>
  <path d="M96.80 99.35 l-3.45 -2 1.15 -0.95 c1.10 -0.90 1.15 -0.85 4.45 0.95 4.70 2.55 4.85 2.70 3.75 3.50 -1.30 0.95 -2.10 0.75 -5.90 -1.50z"/>
  <path d="M101.50 95.70 c-4.90 -2.75 -4.80 -2.60 -2.70 -4.75 1.05 -1.05 1.80 -2 1.65 -2.10 -1.45 -1.25 -2.25 -1.25 -3.70 0.15 -2.50 2.35 -4.40 2.35 -8.60 0 -2 -1.10 -3.65 -2.20 -3.65 -2.40 0 -0.20 0.45 -0.65 1.05 -1 0.90 -0.55 1.40 -0.45 4.20 1.15 1.75 0.95 3.35 1.75 3.60 1.75 0.20 0 0.80 -0.55 1.25 -1.25 l0.90 -1.20 -2.75 -1.55 c-3 -1.70 -3.25 -2.20 -1.75 -3 0.85 -0.45 1.55 -0.30 3.75 0.90 l2.75 1.50 3.35 -3.95 c3.35 -3.85 4.85 -4.85 6.45 -4.25 0.60 0.25 -0.10 1.35 -3.30 5.05 -4.05 4.75 -4.05 4.75 -2.85 5.30 1.15 0.50 1.40 0.35 3.40 -1.85 3.65 -3.95 3.90 -4.20 4.70 -3.90 0.40 0.20 0.75 0.05 0.75 -0.25 0 -0.40 0.20 -0.40 0.70 0.05 0.55 0.55 0.15 1.25 -2.60 4.30 -1.80 2 -3.15 3.70 -3.05 3.80 0.10 0.05 1.40 0.80 2.80 1.60 2.70 1.50 2.95 2 1.50 2.90 -0.65 0.45 -1.45 0.25 -3.55 -0.90 -2.30 -1.25 -2.85 -1.35 -3.50 -0.85 -1.20 1 -1 1.35 1.95 3.05 1.50 0.85 2.75 1.70 2.75 1.85 0 0.30 -1.60 1.60 -2 1.65 -0.15 0 -1.70 -0.80 -3.50 -1.80z"/>
  <path d="M180.20 66.70 c0.15 -0.45 0.30 -0.85 0.30 -0.95 0 -0.20 1.90 -0.75 5.15 -1.45 1.25 -0.30 1.40 -0.20 1.25 0.80 -0.10 0.85 -0.70 1.25 -2.65 1.75 -3.45 0.85 -4.45 0.85 -4.05 -0.15z"/>
  <path d="M169.50 65.70 c0.05 -1.20 1.20 -2 3.60 -2.45 2.40 -0.45 2.65 -0.65 2.80 -1.95 0.15 -1.25 0.05 -1.40 -1 -1.15 -4.50 1.05 -4.55 1.05 -4.15 -0.20 0.20 -0.65 0.40 -1.25 0.45 -1.30 0 0 1.05 -0.25 2.30 -0.50 l2.25 -0.45 0.15 -4.50 c0.10 -3.80 0.30 -4.55 1.10 -5.10 0.95 -0.60 1 -0.45 1 4.15 0 4.40 0.05 4.75 1 4.75 0.90 0 1 -0.35 1 -3.40 0 -2.80 0.20 -3.60 1 -4.35 1 -0.90 1 -0.85 1 3 l0 3.90 2.50 -0.35 c2.25 -0.30 2.50 -0.25 2.50 0.65 0 0.75 -0.55 1.10 -2.50 1.55 -1.95 0.45 -2.50 0.80 -2.50 1.60 0 0.90 0.20 0.95 1.80 0.70 0.95 -0.20 2.10 -0.50 2.50 -0.65 0.45 -0.15 0.70 0.10 0.70 0.80 0 1.20 -1.15 1.80 -4.65 2.30 l-2.35 0.35 0 -2.10 c0 -1.70 -0.15 -2.05 -0.80 -1.80 -0.45 0.15 -0.90 0.30 -1 0.30 -0.10 0 -0.20 0.60 -0.20 1.30 0 1.80 -1.75 4.05 -3.40 4.40 -3.80 0.75 -5.10 0.85 -5.10 0.50z"/>
  <path d="M147.30 57.10 c-0.55 -0.95 1.05 -2.10 3.65 -2.60 3.20 -0.60 3.55 -0.60 3.55 -0.10 -0.05 1 -1.05 1.70 -3.05 2.15 -1.20 0.25 -2.55 0.60 -3.05 0.75 -0.45 0.15 -0.95 0.05 -1.10 -0.20z"/>
  <path d="M137.10 54.90 c0.10 -0.90 0.70 -1.25 3.05 -1.80 2.50 -0.60 2.85 -0.85 2.85 -1.90 0 -1.35 -0.75 -1.50 -3.35 -0.75 -1.80 0.55 -2.15 0.35 -1.80 -0.95 0.15 -0.60 1.05 -1.10 2.70 -1.50 l2.45 -0.60 0 -4.35 c0 -4.05 0.45 -5.55 1.60 -5.55 0.20 0 0.40 2.15 0.40 4.80 0 4.30 0.10 4.75 0.90 4.60 0.70 -0.15 0.90 -0.80 1 -3.45 0.10 -2.55 0.35 -3.55 1.10 -4.20 1 -0.90 1 -0.85 1 2.65 0 1.95 0.20 3.65 0.45 3.85 0.30 0.15 1.45 0.05 2.65 -0.20 1.15 -0.30 2.20 -0.45 2.25 -0.40 0.05 0.10 0 0.65 -0.15 1.20 -0.25 0.85 -0.80 1.20 -2.45 1.45 -1.30 0.15 -2.30 0.65 -2.50 1.10 -0.45 1.25 0.35 1.60 2.70 1.05 2.50 -0.55 2.85 -0.40 2.10 0.95 -0.35 0.65 -1.45 1.15 -3.35 1.55 -3.85 0.75 -3.70 0.80 -3.70 -1.50 0 -1.65 -0.15 -2 -0.85 -1.85 -0.55 0.10 -0.95 0.70 -1.05 1.60 -0.25 2.25 -1.50 3.75 -3.55 4.25 -4.70 1.20 -4.65 1.20 -4.45 -0.05z"/>
  <path d="M180.10 34.65 c0.20 -1.10 1.90 -1.95 4.80 -2.40 1.90 -0.30 2.10 -0.25 2.10 0.70 0 0.70 -0.40 1.10 -1.35 1.30 -0.80 0.15 -2.20 0.50 -3.20 0.75 -2.40 0.65 -2.55 0.65 -2.35 -0.35z"/>
  <path d="M169.50 33.70 c0 -1.25 1.30 -2.20 3.75 -2.70 2.45 -0.50 2.75 -0.70 2.75 -1.80 0 -1.25 -0.05 -1.25 -2.70 -0.95 -2.60 0.35 -2.70 0.30 -2.45 -0.65 0.15 -0.75 0.95 -1.20 2.70 -1.60 l2.45 -0.60 0 -4.35 c0 -4.05 0.45 -5.55 1.60 -5.55 0.20 0 0.40 2.15 0.40 4.80 0 4.30 0.10 4.75 0.90 4.60 0.70 -0.15 0.90 -0.80 1 -3.65 0.10 -2.85 0.30 -3.65 1.10 -4.15 0.95 -0.60 1 -0.45 1 3.15 0 2.05 0.15 3.75 0.40 3.75 0.20 -0.05 1.30 -0.25 2.50 -0.45 2 -0.40 2.15 -0.35 2 0.60 -0.10 0.80 -0.70 1.20 -2.40 1.60 -1.80 0.45 -2.30 0.80 -2.40 1.70 -0.20 1.25 -0.45 1.25 3.70 0.25 1.15 -0.30 1.25 -0.20 1.10 0.85 -0.10 1 -0.60 1.30 -2.65 1.80 -4.15 0.95 -4.25 0.90 -4.25 -1.35 0 -1.65 -0.15 -2 -1 -2 -0.75 0 -1 0.35 -1 1.25 0 2.05 -1.35 4.20 -2.90 4.55 -0.75 0.15 -2.15 0.50 -3.10 0.75 -2.05 0.50 -2.50 0.55 -2.50 0.15z"/>
 </g>
 <g fill="#009f44">
  <path d="M63.35 116.70 c0.15 -0.40 0.55 -0.70 0.95 -0.70 1.05 0 0.85 0.85 -0.25 1.15 -0.70 0.15 -0.90 0.05 -0.70 -0.45z"/>
  <path d="M79 112.50 c0 -0.25 0.30 -0.50 0.70 -0.50 0.40 0 0.90 0.25 1.05 0.50 0.15 0.30 -0.15 0.50 -0.70 0.50 -0.60 0 -1.05 -0.20 -1.05 -0.50z"/>
  <path d="M83.50 111.50 c0 -0.25 0.30 -0.50 0.70 -0.50 0.40 0 0.90 0.25 1.05 0.50 0.15 0.30 -0.15 0.50 -0.70 0.50 -0.60 0 -1.05 -0.20 -1.05 -0.50z"/>
  <path d="M88.50 110.50 c0 -0.25 0.30 -0.50 0.70 -0.50 0.40 0 0.90 0.25 1.05 0.50 0.15 0.30 -0.15 0.50 -0.70 0.50 -0.60 0 -1.05 -0.20 -1.05 -0.50z"/>
  <path d="M114.50 106 c0 -0.25 0.30 -0.50 0.70 -0.50 0.40 0 0.90 0.25 1.05 0.50 0.15 0.30 -0.15 0.50 -0.70 0.50 -0.60 0 -1.05 -0.20 -1.05 -0.50z"/>
  <path d="M118 105.50 c0 -0.25 0.35 -0.50 0.75 -0.50 0.40 0 0.75 0.25 0.75 0.50 0 0.30 -0.35 0.50 -0.75 0.50 -0.40 0 -0.75 -0.20 -0.75 -0.50z"/>
  <path d="M125 104.50 c0 -0.65 1 -0.65 2 0 0.60 0.40 0.45 0.50 -0.60 0.50 -0.80 0 -1.40 -0.20 -1.40 -0.50z"/>
  <path d="M132.50 103.50 c0 -0.25 0.30 -0.50 0.70 -0.50 0.40 0 0.90 0.25 1.05 0.50 0.15 0.30 -0.15 0.50 -0.70 0.50 -0.60 0 -1.05 -0.20 -1.05 -0.50z"/>
  <path d="M136.50 103 c0 -0.25 0.35 -0.50 0.75 -0.50 0.40 0 0.75 0.25 0.75 0.50 0 0.30 -0.35 0.50 -0.75 0.50 -0.40 0 -0.75 -0.20 -0.75 -0.50z"/>
  <path d="M140 102.50 c0 -0.65 1 -0.65 2 0 0.60 0.40 0.45 0.50 -0.60 0.50 -0.80 0 -1.40 -0.20 -1.40 -0.50z"/>
  <path d="M144.50 102 c0 -0.65 1 -0.65 2 0 0.60 0.40 0.45 0.50 -0.60 0.50 -0.80 0 -1.40 -0.20 -1.40 -0.50z"/>
  <path d="M149 101.50 c0 -0.65 1 -0.65 2 0 0.60 0.40 0.45 0.50 -0.60 0.50 -0.80 0 -1.40 -0.20 -1.40 -0.50z"/>
  <path d="M162.50 100 c0 -0.60 0.85 -0.60 2.25 0 0.85 0.35 0.75 0.45 -0.60 0.45 -0.90 0.05 -1.65 -0.15 -1.65 -0.45z"/>
  <path d="M167 99.50 c0 -0.65 1 -0.65 2 0 0.60 0.40 0.45 0.50 -0.60 0.50 -0.80 0 -1.40 -0.20 -1.40 -0.50z"/>
  <path d="M172 99 c0 -0.25 0.35 -0.50 0.75 -0.50 0.40 0 0.75 0.25 0.75 0.50 0 0.30 -0.35 0.50 -0.75 0.50 -0.40 0 -0.75 -0.20 -0.75 -0.50z"/>
  <path d="M171 93.40 c0 -0.50 -0.30 -0.90 -0.70 -0.90 -0.85 0 -16.80 -11.65 -17.40 -12.70 -0.45 -0.80 0.05 -0.65 4.85 1.40 0.85 0.35 4.70 1.85 8.65 3.35 5.40 2.05 7.10 2.90 6.90 3.45 -0.80 2.70 -2.25 6.10 -2.30 5.40z"/>
  <path d="M22.55 61.30 c-0.40 -0.50 -0.45 -1 -0.15 -1.65 0.70 -1.30 2.10 -4.60 2.10 -4.90 0 -0.15 0.40 -0.65 0.90 -1.15 0.90 -0.90 3.60 -4.50 10.75 -14.20 1.60 -2.15 3.05 -3.90 3.30 -3.90 0.25 0 1.10 0.30 1.90 0.65 l1.45 0.60 -4.95 6.75 c-9.45 12.85 -13.60 18.20 -14.15 18.35 -0.30 0.10 -0.80 -0.15 -1.15 -0.55z"/>
 </g>
</svg>